<svg width="56" height="62" viewBox="0 0 56 62" fill="none" xmlns="http://www.w3.org/2000/svg">
<circle opacity="0.2" cx="23.5402" cy="23.0398" r="22.9594" fill="#60E1CB"/>
<g clip-path="url(#clip0_407_241)">
<path d="M55.6198 39.4178C55.6188 38.9614 55.3818 38.538 54.9932 38.2984L50.4199 35.4792L54.9981 32.6297C55.3842 32.3894 55.6191 31.9671 55.6198 31.5125C55.6205 31.0577 55.3868 30.6347 55.0014 30.3933L33.8198 17.1218C33.3917 16.8536 32.8479 16.8536 32.4198 17.1218L11.2383 30.3933C10.853 30.6347 10.6193 31.0577 10.6199 31.5125C10.6206 31.9672 10.8555 32.3895 11.2416 32.6297L15.7884 35.4596L11.2396 38.3028C10.8538 38.5439 10.6195 38.967 10.62 39.422C10.6204 39.877 10.8554 40.2996 11.2417 40.54L15.7884 43.3699L11.2396 46.2129C10.8544 46.4537 10.6202 46.8759 10.62 47.3302C10.6197 47.7845 10.8534 48.2069 11.2384 48.448L32.4199 61.7195C32.634 61.8536 32.8769 61.9207 33.1199 61.9207C33.3628 61.9207 33.6058 61.8536 33.8198 61.7195L55.0014 48.448C55.3876 48.2061 55.6215 47.7817 55.6198 47.326C55.6181 46.8703 55.3812 46.4477 54.9932 46.2086L50.4199 43.3894L54.9981 40.5399C55.3856 40.2988 55.6208 39.8743 55.6198 39.4178ZM14.4273 31.5069L33.1199 19.7949L51.8125 31.5069C51.6328 31.6187 33.6556 42.8079 33.1199 43.1413L14.4273 31.5069ZM51.8039 47.34L33.1199 59.0466L14.4236 47.3323L18.281 44.9214L32.4233 53.7236C32.6365 53.8563 32.8782 53.9226 33.1199 53.9226C33.3616 53.9226 33.6033 53.8563 33.8165 53.7236L47.9197 44.9456L51.8039 47.34ZM33.1199 51.0514L14.4295 39.4185L18.281 37.0112L32.4233 45.8134C32.6365 45.9462 32.8782 46.0125 33.1199 46.0125C33.3616 46.0125 33.6033 45.9462 33.8165 45.8134L47.9197 37.0355L51.7979 39.4261C51.6907 39.4928 33.6147 50.7434 33.1199 51.0514Z" fill="#60E1CB"/>
</g>
<defs>
<clipPath id="clip0_407_241">
<rect width="45" height="45" fill="white" transform="translate(10.6199 16.9207)"/>
</clipPath>
</defs>
</svg>
