<svg width="57" height="56" viewBox="0 0 57 56" fill="none" xmlns="http://www.w3.org/2000/svg">
<circle opacity="0.2" cx="22.9682" cy="23.7705" r="22.9594" fill="#60E1CB"/>
<g clip-path="url(#clip0_398_237)">
<path d="M51.8908 52.7094H17.1082C14.2915 52.7094 11.9995 50.4684 11.9995 47.7142V18.8799C11.9995 16.1258 14.2915 13.8848 17.1082 13.8848H51.8908C54.7076 13.8848 56.9995 16.1258 56.9995 18.8799V47.7142C56.9995 50.4684 54.7076 52.7094 51.8908 52.7094ZM17.1082 15.3727C15.1305 15.3727 13.5213 16.9461 13.5213 18.8799V47.7142C13.5213 49.648 15.1305 51.2215 17.1082 51.2215H51.8908C53.8686 51.2215 55.4778 49.648 55.4778 47.7142V18.8799C55.4778 16.9461 53.8686 15.3727 51.8908 15.3727H17.1082Z" fill="#60E1CB"/>
<path d="M50.1321 41.3512H38.176C37.7557 41.3512 37.4152 41.0182 37.4152 40.6072C37.4152 40.1967 37.7557 39.8633 38.176 39.8633H50.1321C50.5521 39.8633 50.893 40.1967 50.893 40.6072C50.893 41.0182 50.5525 41.3512 50.1321 41.3512Z" fill="#60E1CB"/>
<path d="M50.1321 46.7299H38.176C37.7557 46.7299 37.4152 46.3969 37.4152 45.9859C37.4152 45.5753 37.7557 45.2419 38.176 45.2419H50.1321C50.5521 45.2419 50.893 45.5753 50.893 45.9859C50.893 46.3969 50.5525 46.7299 50.1321 46.7299Z" fill="#60E1CB"/>
<path d="M50.1321 30.5936H38.176C37.7557 30.5936 37.4152 30.2607 37.4152 29.8497C37.4152 29.4391 37.7557 29.1057 38.176 29.1057H50.1321C50.5521 29.1057 50.893 29.4391 50.893 29.8497C50.893 30.2607 50.5525 30.5936 50.1321 30.5936Z" fill="#60E1CB"/>
<path d="M50.1321 35.9723H38.176C37.7557 35.9723 37.4152 35.6393 37.4152 35.2283C37.4152 34.8177 37.7557 34.4844 38.176 34.4844H50.1321C50.5521 34.4844 50.893 34.8177 50.893 35.2283C50.893 35.6393 50.5525 35.9723 50.1321 35.9723Z" fill="#60E1CB"/>
<path d="M56.2386 23.8466H12.7604C12.34 23.8466 11.9995 23.5136 11.9995 23.1026C11.9995 22.6916 12.34 22.3586 12.7604 22.3586H56.2386C56.659 22.3586 56.9995 22.6916 56.9995 23.1026C56.9995 23.5136 56.659 23.8466 56.2386 23.8466Z" fill="#60E1CB"/>
<path d="M22.9685 21.1948C21.6629 21.1948 20.6006 20.1565 20.6006 18.8799C20.6006 17.6032 21.6629 16.5649 22.9685 16.5649C24.2742 16.5649 25.3361 17.6032 25.3361 18.8799C25.3361 20.1565 24.2742 21.1948 22.9685 21.1948ZM22.9685 18.0529C22.5019 18.0529 22.1223 18.424 22.1223 18.8799C22.1223 19.3357 22.5019 19.7069 22.9685 19.7069C23.4347 19.7069 23.8143 19.3357 23.8143 18.8799C23.8143 18.424 23.4347 18.0529 22.9685 18.0529Z" fill="#60E1CB"/>
<path d="M17.4861 21.1948C16.1809 21.1948 15.1185 20.1565 15.1185 18.8799C15.1185 17.6032 16.1809 16.5649 17.4861 16.5649C18.7917 16.5649 19.854 17.6032 19.854 18.8799C19.854 20.1565 18.7917 21.1948 17.4861 21.1948ZM17.4861 18.0529C17.0199 18.0529 16.6403 18.424 16.6403 18.8799C16.6403 19.3357 17.0199 19.7069 17.4861 19.7069C17.9527 19.7069 18.3323 19.3357 18.3323 18.8799C18.3323 18.424 17.9527 18.0529 17.4861 18.0529Z" fill="#60E1CB"/>
<path d="M28.4503 21.1948C27.1447 21.1948 26.0828 20.1565 26.0828 18.8799C26.0828 17.6032 27.1447 16.5649 28.4503 16.5649C29.7559 16.5649 30.8182 17.6032 30.8182 18.8799C30.8182 20.1565 29.7559 21.1948 28.4503 21.1948ZM28.4503 18.0529C27.9837 18.0529 27.6045 18.424 27.6045 18.8799C27.6045 19.3357 27.9841 19.7069 28.4503 19.7069C28.9169 19.7069 29.2965 19.3357 29.2965 18.8799C29.2965 18.424 28.9169 18.0529 28.4503 18.0529Z" fill="#60E1CB"/>
<path d="M32.4344 46.73H18.63C18.2097 46.73 17.8691 46.397 17.8691 45.986V29.8497C17.8691 29.4391 18.2097 29.1057 18.63 29.1057H32.4344C32.8547 29.1057 33.1952 29.4391 33.1952 29.8497V45.986C33.1952 46.397 32.8547 46.73 32.4344 46.73ZM19.3909 45.242H31.6735V30.5936H19.3909V45.242Z" fill="#60E1CB"/>
</g>
<defs>
<clipPath id="clip0_398_237">
<rect width="45" height="44" fill="white" transform="translate(11.9995 11.334)"/>
</clipPath>
</defs>
</svg>
