<svg width="55" height="56" viewBox="0 0 55 56" fill="none" xmlns="http://www.w3.org/2000/svg">
<circle opacity="0.2" cx="23.5402" cy="23.7041" r="22.9594" fill="#60E1CB"/>
<g clip-path="url(#clip0_407_239)">
<mask id="path-2-inside-1_407_239" fill="white">
<path d="M40.8587 38.9782C42.0154 37.3251 42.6948 35.3149 42.6948 33.1489C42.6948 27.5274 38.1211 22.9536 32.4995 22.9536C26.8779 22.9536 22.3042 27.5274 22.3042 33.1489C22.3042 38.7708 26.8779 43.3442 32.4995 43.3442C34.6882 43.3442 36.7179 42.6507 38.381 41.4724L45.0335 48.125C45.3765 48.468 45.8266 48.6396 46.2764 48.6396C46.7261 48.6396 47.1762 48.468 47.5192 48.125C48.2058 47.4384 48.2058 46.3253 47.5192 45.639L40.8587 38.9782ZM25.8198 33.1489C25.8198 29.4658 28.8163 26.4692 32.4995 26.4692C36.1827 26.4692 39.1792 29.4658 39.1792 33.1489C39.1792 36.8321 36.1827 39.8286 32.4995 39.8286C28.8163 39.8286 25.8198 36.8321 25.8198 33.1489ZM54.9995 32.1821V33.9399C54.9995 36.8479 52.634 39.2134 49.7261 39.2134H48.8406C48.6978 39.2134 48.589 39.2673 48.5231 39.3126C47.7224 39.8619 46.6283 39.658 46.0793 38.857C45.53 38.0567 45.7339 36.9622 46.5345 36.4132C47.2174 35.9453 48.0146 35.6978 48.8406 35.6978H49.7261C50.6953 35.6978 51.4839 34.9091 51.4839 33.9399V32.1821C51.4839 31.2129 50.6953 30.4243 49.7261 30.4243H48.8406C47.179 30.4243 45.6927 29.4242 45.0535 27.8769L45.0428 27.8511C44.4005 26.3041 44.7441 24.5453 45.919 23.3704L46.5452 22.7445C47.2305 22.0589 47.2305 20.9438 46.5452 20.2585L45.302 19.0157C44.97 18.6837 44.5285 18.5007 44.0592 18.5007C43.5895 18.5007 43.148 18.6834 42.8164 19.0157L42.1901 19.6416C41.0153 20.8164 39.2564 21.1604 37.7094 20.5174L37.6833 20.5068C36.1363 19.8678 35.1362 18.3816 35.1362 16.7199V15.8345C35.1362 14.8653 34.3476 14.0767 33.3784 14.0767H31.6206C30.6514 14.0767 29.8628 14.8653 29.8628 15.8345V16.7199C29.8628 18.3816 28.8627 19.8678 27.3153 20.5068L27.293 20.516C25.7422 21.1601 23.9837 20.8164 22.8089 19.6416L22.1827 19.0154C21.851 18.6834 21.4095 18.5007 20.9398 18.5007C20.4705 18.5007 20.029 18.6834 19.697 19.0154L18.4538 20.2585C17.7686 20.9438 17.7686 22.0589 18.4538 22.7445L19.0801 23.3704C20.2549 24.5453 20.5986 26.3041 19.9559 27.8515L19.9452 27.8775C19.3063 29.4242 17.8201 30.4243 16.1584 30.4243H15.2729C14.3037 30.4243 13.5151 31.2129 13.5151 32.1821V33.9399C13.5151 34.9091 14.3037 35.6978 15.2729 35.6978H16.1584C17.8197 35.6978 19.3063 36.6979 19.9452 38.2452L19.9583 38.2761C20.5986 39.818 20.2549 41.5768 19.0801 42.7517L18.4538 43.3775C18.1218 43.7095 17.9392 44.151 17.9392 44.6207C17.9392 45.09 18.1218 45.5315 18.4538 45.8635L19.697 47.1067C20.3823 47.792 21.4974 47.7923 22.183 47.1067L22.8089 46.4805C23.983 45.3067 25.7405 44.9623 27.2872 45.6036L27.3098 45.6129C28.863 46.2542 29.8628 47.7408 29.8628 49.4022V50.2876C29.8628 51.2568 30.6514 52.0454 31.6206 52.0454H33.3784C34.3476 52.0454 35.1362 51.2568 35.1362 50.2876V49.4022C35.1362 48.5761 35.3838 47.7786 35.8521 47.0961C36.401 46.2954 37.4952 46.0915 38.2958 46.6408C39.0965 47.1898 39.3004 48.284 38.7511 49.0846C38.7058 49.1505 38.6519 49.2593 38.6519 49.4022V50.2876C38.6519 53.1955 36.2864 55.561 33.3784 55.561H31.6206C28.7127 55.561 26.3472 53.1955 26.3472 50.2876V49.4022C26.3472 49.1694 26.2006 48.9583 25.9733 48.8645L25.9414 48.8511C25.7131 48.7564 25.4593 48.8017 25.2949 48.9665L24.6687 49.5927C22.6128 51.6485 19.2672 51.6485 17.211 49.5927L15.9678 48.3495C14.9719 47.3536 14.4236 46.0294 14.4236 44.6207C14.4236 43.2121 14.9719 41.8879 15.9682 40.8919L16.5941 40.2657C16.7585 40.1012 16.8038 39.8475 16.7094 39.6195L16.695 39.5852C16.6023 39.36 16.3912 39.2134 16.1584 39.2134H15.2729C12.365 39.2134 9.99951 36.8479 9.99951 33.9399V32.1821C9.99951 29.2742 12.365 26.9087 15.2729 26.9087H16.1584C16.3912 26.9087 16.6023 26.7621 16.696 26.5352L16.7091 26.5032C16.8042 26.2749 16.7589 26.0212 16.5941 25.8564L15.9682 25.2305C13.912 23.1744 13.912 19.8287 15.9682 17.7725L17.211 16.5297C18.2073 15.5337 19.5315 14.9851 20.9398 14.9851C22.3485 14.9851 23.6727 15.5337 24.669 16.5297L25.2949 17.1556C25.4597 17.3204 25.7134 17.3657 25.9414 17.2709L25.9729 17.2575C26.2006 17.1638 26.3472 16.9527 26.3472 16.7199V15.8345C26.3472 12.9265 28.713 10.561 31.6206 10.561H33.3784C36.2864 10.561 38.6519 12.9265 38.6519 15.8345V16.7199C38.6519 16.9527 38.7985 17.1638 39.0254 17.2575L39.0611 17.2723C39.286 17.3657 39.5397 17.3204 39.7041 17.1556L40.3304 16.5297C41.3263 15.5334 42.6505 14.9851 44.0592 14.9851C45.4675 14.9851 46.792 15.5334 47.788 16.5297L49.0308 17.7725C51.087 19.8287 51.087 23.1744 49.0308 25.2302L48.405 25.8564C48.2402 26.0209 48.1949 26.2746 48.2896 26.5029L48.3027 26.5345C48.3967 26.7617 48.6079 26.9087 48.8406 26.9087H49.7261C52.634 26.9087 54.9995 29.2742 54.9995 32.1821Z"/>
</mask>
<path d="M40.8587 38.9782C42.0154 37.3251 42.6948 35.3149 42.6948 33.1489C42.6948 27.5274 38.1211 22.9536 32.4995 22.9536C26.8779 22.9536 22.3042 27.5274 22.3042 33.1489C22.3042 38.7708 26.8779 43.3442 32.4995 43.3442C34.6882 43.3442 36.7179 42.6507 38.381 41.4724L45.0335 48.125C45.3765 48.468 45.8266 48.6396 46.2764 48.6396C46.7261 48.6396 47.1762 48.468 47.5192 48.125C48.2058 47.4384 48.2058 46.3253 47.5192 45.639L40.8587 38.9782ZM25.8198 33.1489C25.8198 29.4658 28.8163 26.4692 32.4995 26.4692C36.1827 26.4692 39.1792 29.4658 39.1792 33.1489C39.1792 36.8321 36.1827 39.8286 32.4995 39.8286C28.8163 39.8286 25.8198 36.8321 25.8198 33.1489ZM54.9995 32.1821V33.9399C54.9995 36.8479 52.634 39.2134 49.7261 39.2134H48.8406C48.6978 39.2134 48.589 39.2673 48.5231 39.3126C47.7224 39.8619 46.6283 39.658 46.0793 38.857C45.53 38.0567 45.7339 36.9622 46.5345 36.4132C47.2174 35.9453 48.0146 35.6978 48.8406 35.6978H49.7261C50.6953 35.6978 51.4839 34.9091 51.4839 33.9399V32.1821C51.4839 31.2129 50.6953 30.4243 49.7261 30.4243H48.8406C47.179 30.4243 45.6927 29.4242 45.0535 27.8769L45.0428 27.8511C44.4005 26.3041 44.7441 24.5453 45.919 23.3704L46.5452 22.7445C47.2305 22.0589 47.2305 20.9438 46.5452 20.2585L45.302 19.0157C44.97 18.6837 44.5285 18.5007 44.0592 18.5007C43.5895 18.5007 43.148 18.6834 42.8164 19.0157L42.1901 19.6416C41.0153 20.8164 39.2564 21.1604 37.7094 20.5174L37.6833 20.5068C36.1363 19.8678 35.1362 18.3816 35.1362 16.7199V15.8345C35.1362 14.8653 34.3476 14.0767 33.3784 14.0767H31.6206C30.6514 14.0767 29.8628 14.8653 29.8628 15.8345V16.7199C29.8628 18.3816 28.8627 19.8678 27.3153 20.5068L27.293 20.516C25.7422 21.1601 23.9837 20.8164 22.8089 19.6416L22.1827 19.0154C21.851 18.6834 21.4095 18.5007 20.9398 18.5007C20.4705 18.5007 20.029 18.6834 19.697 19.0154L18.4538 20.2585C17.7686 20.9438 17.7686 22.0589 18.4538 22.7445L19.0801 23.3704C20.2549 24.5453 20.5986 26.3041 19.9559 27.8515L19.9452 27.8775C19.3063 29.4242 17.8201 30.4243 16.1584 30.4243H15.2729C14.3037 30.4243 13.5151 31.2129 13.5151 32.1821V33.9399C13.5151 34.9091 14.3037 35.6978 15.2729 35.6978H16.1584C17.8197 35.6978 19.3063 36.6979 19.9452 38.2452L19.9583 38.2761C20.5986 39.818 20.2549 41.5768 19.0801 42.7517L18.4538 43.3775C18.1218 43.7095 17.9392 44.151 17.9392 44.6207C17.9392 45.09 18.1218 45.5315 18.4538 45.8635L19.697 47.1067C20.3823 47.792 21.4974 47.7923 22.183 47.1067L22.8089 46.4805C23.983 45.3067 25.7405 44.9623 27.2872 45.6036L27.3098 45.6129C28.863 46.2542 29.8628 47.7408 29.8628 49.4022V50.2876C29.8628 51.2568 30.6514 52.0454 31.6206 52.0454H33.3784C34.3476 52.0454 35.1362 51.2568 35.1362 50.2876V49.4022C35.1362 48.5761 35.3838 47.7786 35.8521 47.0961C36.401 46.2954 37.4952 46.0915 38.2958 46.6408C39.0965 47.1898 39.3004 48.284 38.7511 49.0846C38.7058 49.1505 38.6519 49.2593 38.6519 49.4022V50.2876C38.6519 53.1955 36.2864 55.561 33.3784 55.561H31.6206C28.7127 55.561 26.3472 53.1955 26.3472 50.2876V49.4022C26.3472 49.1694 26.2006 48.9583 25.9733 48.8645L25.9414 48.8511C25.7131 48.7564 25.4593 48.8017 25.2949 48.9665L24.6687 49.5927C22.6128 51.6485 19.2672 51.6485 17.211 49.5927L15.9678 48.3495C14.9719 47.3536 14.4236 46.0294 14.4236 44.6207C14.4236 43.2121 14.9719 41.8879 15.9682 40.8919L16.5941 40.2657C16.7585 40.1012 16.8038 39.8475 16.7094 39.6195L16.695 39.5852C16.6023 39.36 16.3912 39.2134 16.1584 39.2134H15.2729C12.365 39.2134 9.99951 36.8479 9.99951 33.9399V32.1821C9.99951 29.2742 12.365 26.9087 15.2729 26.9087H16.1584C16.3912 26.9087 16.6023 26.7621 16.696 26.5352L16.7091 26.5032C16.8042 26.2749 16.7589 26.0212 16.5941 25.8564L15.9682 25.2305C13.912 23.1744 13.912 19.8287 15.9682 17.7725L17.211 16.5297C18.2073 15.5337 19.5315 14.9851 20.9398 14.9851C22.3485 14.9851 23.6727 15.5337 24.669 16.5297L25.2949 17.1556C25.4597 17.3204 25.7134 17.3657 25.9414 17.2709L25.9729 17.2575C26.2006 17.1638 26.3472 16.9527 26.3472 16.7199V15.8345C26.3472 12.9265 28.713 10.561 31.6206 10.561H33.3784C36.2864 10.561 38.6519 12.9265 38.6519 15.8345V16.7199C38.6519 16.9527 38.7985 17.1638 39.0254 17.2575L39.0611 17.2723C39.286 17.3657 39.5397 17.3204 39.7041 17.1556L40.3304 16.5297C41.3263 15.5334 42.6505 14.9851 44.0592 14.9851C45.4675 14.9851 46.792 15.5334 47.788 16.5297L49.0308 17.7725C51.087 19.8287 51.087 23.1744 49.0308 25.2302L48.405 25.8564C48.2402 26.0209 48.1949 26.2746 48.2896 26.5029L48.3027 26.5345C48.3967 26.7617 48.6079 26.9087 48.8406 26.9087H49.7261C52.634 26.9087 54.9995 29.2742 54.9995 32.1821Z" fill="#60E1CB" stroke="#FCFCFE" stroke-width="1.2" mask="url(#path-2-inside-1_407_239)"/>
</g>
<defs>
<clipPath id="clip0_407_239">
<rect width="45" height="45" fill="white" transform="translate(9.99951 10.561)"/>
</clipPath>
</defs>
</svg>
