<svg width="50" height="63" viewBox="0 0 50 63" fill="none" xmlns="http://www.w3.org/2000/svg">
<circle opacity="0.2" cx="23.2092" cy="23.0398" r="22.9594" fill="#60E1CB"/>
<g clip-path="url(#clip0_407_240)">
<path d="M26.2363 36.6234C25.8545 36.2492 25.2363 36.2492 24.8545 36.6234C24.4736 36.9967 24.4736 37.6025 24.8545 37.9767C25.2363 38.3499 25.8545 38.3499 26.2363 37.9767C26.6172 37.6025 26.6172 36.9967 26.2363 36.6234Z" fill="#60E1CB"/>
<path d="M38.6647 24.4423C36.7566 22.5723 33.6675 22.5723 31.7592 24.4423C29.856 26.3074 29.8559 29.3431 31.7595 31.2098C33.6634 33.0745 36.761 33.0753 38.6647 31.2096C40.5728 29.3398 40.5731 26.3124 38.6647 24.4423ZM37.2837 29.8561C36.1418 30.9753 34.283 30.9753 33.1405 29.8563C31.9985 28.7364 31.9984 26.9148 33.1403 25.7957C34.2852 24.6738 36.1387 24.6736 37.2837 25.7957C38.4285 26.9175 38.4287 28.7341 37.2837 29.8561Z" fill="#60E1CB"/>
<path d="M49.714 13.6143C49.5222 13.4264 49.2605 13.3246 48.9884 13.3347C48.7676 13.3424 43.5103 13.5495 37.2608 15.7142C32.253 17.447 28.0789 19.9279 24.8544 23.088C24.1318 23.7961 23.4287 24.547 22.7559 25.3271C19.5677 23.4879 17.0128 24.0646 15.3976 24.9117C11.6788 26.8621 9.37695 32.1579 9.37695 35.9458C9.37725 36.3328 9.61523 36.6819 9.98008 36.8299C10.1009 36.879 10.2278 36.9029 10.3536 36.9029C10.6078 36.9029 10.8575 36.8055 11.0443 36.6225C13.0056 34.7005 15.4246 34.8207 16.2148 34.9226L16.5568 35.2577C15.8838 36.8272 15.3416 38.388 14.9439 39.9059C14.8004 40.4552 14.8488 41.0365 15.0622 41.5683C14.122 41.9929 13.2148 42.6164 12.425 43.3905C9.91123 45.854 9.40078 51.8579 9.38027 52.1123C9.35781 52.3914 9.46113 52.6663 9.66318 52.8643C9.84707 53.0444 10.0958 53.1446 10.3536 53.1446C10.3792 53.1446 10.4049 53.1436 10.4306 53.1416C10.6901 53.1216 16.8167 52.6214 19.3304 50.1579C20.12 49.3841 20.7561 48.4953 21.1894 47.574C21.7638 47.7954 22.3551 47.8227 22.8867 47.6891C24.4349 47.2995 26.0273 46.7684 27.6291 46.1087L27.9711 46.4439C28.0749 47.2184 28.1975 49.589 26.2364 51.5109C25.9572 51.7846 25.8736 52.1962 26.0248 52.5537C26.1758 52.9114 26.5319 53.1445 26.9269 53.1445C30.7921 53.1445 36.1959 50.8887 38.1862 47.2442C39.0505 45.6616 39.639 43.1578 37.7622 40.0332C38.5578 39.3742 39.3242 38.6851 40.047 37.9767C43.2716 34.8166 45.803 30.726 47.5712 25.8187C49.7802 19.6939 49.9914 14.5417 49.9993 14.3254C50.0091 14.0598 49.9057 13.8023 49.714 13.6143ZM11.5603 33.8873C12.167 31.0102 13.929 27.8531 16.3196 26.5992C17.9172 25.7614 19.6634 25.8435 21.52 26.8395C19.9383 28.8782 18.5632 31.0745 17.417 33.3939C17.4024 33.3851 17.2266 33.1685 16.9001 33.0964C16.7658 33.0666 14.1819 32.522 11.5603 33.8873ZM17.9494 48.8044C16.6066 50.1203 13.4567 50.8143 11.4658 51.0977C11.7551 49.1465 12.4634 46.0597 13.806 44.7439C14.558 44.007 15.4299 43.4483 16.3062 43.1336L19.5926 46.3542C19.2715 47.213 18.7014 48.0675 17.9494 48.8044ZM22.4015 45.835C22.1189 45.9059 21.7916 45.8018 21.5482 45.5637C20.2848 44.3256 19.7906 43.8412 19.6355 43.6893C19.3512 43.4107 18.6538 42.7272 17.1135 41.2176C16.8699 40.9785 16.7637 40.6578 16.8358 40.3813C17.1486 39.1875 17.5577 37.9627 18.0552 36.7261L26.1308 44.6402C24.8688 45.1278 23.6192 45.5287 22.4015 45.835ZM36.4644 46.3411C35.1849 48.6838 31.9634 50.4107 29.0277 51.0051C29.9637 49.2789 30.1701 47.0814 29.8281 45.749C29.7487 45.4395 29.5426 45.2838 29.5311 45.2656C31.8976 44.1423 34.1387 42.7947 36.2192 41.2446C37.2355 43.0643 37.3192 44.7758 36.4644 46.3411ZM38.6662 36.6233C37.7862 37.4856 36.8386 38.3187 35.8498 39.0993C33.4726 40.9751 30.8562 42.564 28.0648 43.8288L18.8832 34.831C20.1738 32.0952 21.7951 29.5311 23.709 27.2018C24.5062 26.2321 25.3562 25.3034 26.2358 24.4415C29.1289 21.6062 32.8626 19.3497 37.3365 17.7254L45.5193 25.7446C43.862 30.1288 41.5595 33.7879 38.6662 36.6233ZM46.2219 23.7261L39.3961 17.0368C43.115 15.9049 46.3502 15.481 47.9651 15.3286C47.8095 16.9115 47.3769 20.082 46.2219 23.7261Z" fill="#60E1CB"/>
<path d="M23.4735 52.8639C23.092 52.4902 22.4736 52.4904 22.0924 52.8641L19.3307 55.5716C18.9494 55.9454 18.9495 56.5514 19.3309 56.925C19.7124 57.2986 20.3308 57.2986 20.712 56.9248L23.4737 54.2174C23.855 53.8436 23.8549 53.2376 23.4735 52.8639Z" fill="#60E1CB"/>
<path d="M9.66318 39.3299C9.28193 38.9561 8.66367 38.9561 8.28212 39.3298L5.51943 42.0362C5.13799 42.4098 5.13789 43.0158 5.51914 43.3897C5.90029 43.7633 6.51855 43.7637 6.90019 43.3898L9.66288 40.6834C10.0443 40.3098 10.0444 39.7038 9.66318 39.3299Z" fill="#60E1CB"/>
<path d="M16.5681 54.2183C16.187 53.8446 15.5685 53.8446 15.1871 54.2182L8.57186 60.7002C8.19042 61.0739 8.19042 61.6799 8.57176 62.0536C8.95292 62.4273 9.57137 62.4275 9.95282 62.0537L16.568 55.5717C16.9495 55.198 16.9495 54.592 16.5681 54.2183Z" fill="#60E1CB"/>
<path d="M8.75576 54.2183C8.37451 53.8446 7.75605 53.8446 7.37471 54.2182L0.759484 60.7002C0.37804 61.0739 0.37804 61.6799 0.759387 62.0536C1.14054 62.4273 1.75899 62.4275 2.14044 62.0537L8.75566 55.5717C9.1371 55.198 9.1371 54.592 8.75576 54.2183Z" fill="#60E1CB"/>
<path d="M8.28154 46.0966C7.90029 45.723 7.28183 45.723 6.90049 46.0967L0.286242 52.5796C-0.0951048 52.9534 -0.0951048 53.5593 0.28634 53.9331C0.667687 54.3069 1.28604 54.3069 1.66739 53.933L8.28164 47.4501C8.66298 47.0763 8.66298 46.4704 8.28154 46.0966Z" fill="#60E1CB"/>
<path d="M30.3791 32.5625C29.9976 32.1888 29.3795 32.1888 28.9979 32.5625L27.6171 33.9158C27.2357 34.2895 27.2357 34.8955 27.6171 35.2693C27.9985 35.643 28.6168 35.643 28.9982 35.2693L30.3791 33.916C30.7604 33.5423 30.7604 32.9363 30.3791 32.5625Z" fill="#60E1CB"/>
</g>
<defs>
<clipPath id="clip0_407_240">
<rect width="50" height="49" fill="white" transform="translate(-0.000244141 13.334)"/>
</clipPath>
</defs>
</svg>
