<svg width="53" height="57" viewBox="0 0 53 57" fill="none" xmlns="http://www.w3.org/2000/svg">
<circle opacity="0.2" cx="23.8166" cy="23.0703" r="22.9594" fill="#60E1CB"/>
<g clip-path="url(#clip0_407_237)">
<path d="M51.6069 18.4053C50.5623 15.7535 49.4373 14.8696 44.9373 14.8696C42.2051 14.8696 40.1158 16.9589 40.1158 19.691C40.1158 21.1375 40.9194 22.5035 41.723 23.95C41.9641 24.5125 42.3658 25.075 42.6069 25.6375L42.9283 26.2803C43.6516 27.7267 44.1337 28.7714 44.1337 30.941C44.1337 31.825 43.9729 32.7893 43.5712 34.1553V34.2356L40.9194 42.191L34.0327 22.6786C34.2657 22.6486 34.4988 22.6172 34.7319 22.5839C36.0177 22.5839 37.0623 21.4589 37.0623 20.1731C37.0623 18.807 36.0176 17.7624 34.6515 17.7624C34.5712 17.7624 34.5712 17.7624 34.4908 17.7624C31.3568 18.2445 28.2229 18.2445 25.089 17.7624C25.0087 17.7624 25.0087 17.7624 24.9283 17.7624C23.5622 17.7624 22.5175 18.807 22.5175 20.1731C22.5176 21.4589 23.5623 22.5839 24.848 22.5839C25.1172 22.6242 25.3892 22.6614 25.6622 22.6969L28.9462 31.0214L24.9283 42.8339L17.6956 22.5976C17.7225 22.5929 17.7495 22.5887 17.7765 22.5839C19.0623 22.5035 20.1068 21.4589 20.1068 20.1731C20.1068 18.807 19.0622 17.7624 17.6961 17.7624C17.6158 17.7624 17.6158 17.7624 17.5353 17.7624C14.9639 18.2445 12.3925 18.2445 9.82108 17.7624C9.74075 17.7624 9.74075 17.7624 9.66033 17.7624C8.29442 17.7625 7.24976 18.8071 7.24976 20.1731C7.24976 21.4364 8.25839 22.4662 9.51312 22.5781L19.3837 49.5839C19.9462 51.1106 21.1515 52.2356 22.7587 52.6375C23.1604 52.7178 23.4819 52.7982 23.8837 52.7982C25.8926 52.7982 27.8212 51.4321 28.464 49.5035L33.0443 35.8428L37.8658 49.5035C38.2675 50.6285 39.0711 51.4321 39.955 51.7535C40.7586 52.075 41.6425 51.9946 42.4461 51.5928C43.4908 51.191 44.2943 50.307 44.6158 49.2625L50.5623 31.4231C51.9283 27.9678 52.2498 24.9142 52.2498 22.9856V21.6999C52.2498 20.575 52.089 19.45 51.6069 18.4053ZM24.9283 20.9767C24.4462 20.9767 24.1248 20.6553 24.1248 20.1731C24.1248 19.7714 24.4462 19.3695 24.848 19.3695C28.1427 19.932 31.3569 19.932 34.7319 19.3695C35.1337 19.3695 35.4552 19.7713 35.4552 20.1731C35.4552 20.6553 35.1338 20.9767 34.6516 20.9767C34.5713 20.9767 34.5713 20.9767 34.4908 20.9767C34.0127 21.0503 33.5347 21.1112 33.0566 21.1623C32.9766 21.1458 32.892 21.1375 32.8033 21.1375C30.6337 21.3785 28.4641 21.3785 26.2944 21.1375C26.2929 21.1375 26.2913 21.1376 26.2899 21.1376C25.8896 21.0918 25.4893 21.0383 25.0891 20.9767C25.0087 20.9767 25.0087 20.9767 24.9283 20.9767ZM8.85692 20.1731C8.85692 19.7714 9.17834 19.3695 9.58018 19.3695C12.3123 19.932 15.0444 19.932 17.7766 19.3695C18.1783 19.3695 18.4998 19.7713 18.4998 20.1731C18.4998 20.6553 18.1784 20.9767 17.6963 20.9767C17.6159 20.9767 17.6159 20.9767 17.5355 20.9767C17.203 21.039 16.8705 21.093 16.538 21.1392C16.5224 21.1385 16.5067 21.1375 16.4908 21.1375C16.3566 21.1589 16.222 21.1787 16.0871 21.1973C14.2115 21.417 12.336 21.3788 10.4604 21.0854C10.408 21.0758 10.3556 21.0671 10.3033 21.0571C10.2963 21.0571 10.2893 21.0577 10.2822 21.0578C10.1285 21.0324 9.97489 21.0056 9.82117 20.9768C9.74084 20.9768 9.74084 20.9768 9.66042 20.9768C9.17834 20.9767 8.85692 20.6553 8.85692 20.1731ZM50.5623 23.066C50.5623 24.8339 50.3212 27.7268 49.0355 30.941L43.0088 48.7803C42.7677 49.4231 42.2855 49.9053 41.6427 50.1464C41.2409 50.3071 40.8391 50.3875 40.4373 50.2267C39.9552 50.066 39.4731 49.5839 39.232 48.941L33.607 33.191C33.5267 32.8695 33.2053 32.6285 32.8838 32.6285C32.5623 32.6285 32.2409 32.8695 32.1605 33.191L26.9373 48.941C26.4551 50.4678 24.7676 51.4321 23.1605 51.0303C22.1158 50.7892 21.3123 50.066 20.9105 49.0214L11.355 22.844C12.1294 22.9327 12.9038 22.9857 13.6783 22.9857C14.483 22.9857 15.2876 22.9288 16.0922 22.8337L24.2854 45.566C24.3658 45.8875 24.6872 46.1285 25.0087 46.1285C25.3301 46.1285 25.6515 45.8875 25.7319 45.566L30.5533 31.2625C30.6337 31.1017 30.6337 30.8607 30.5533 30.7L27.5259 22.8925C28.2737 22.9512 29.0201 22.9857 29.7498 22.9857C30.618 22.9857 31.5102 22.9376 32.4128 22.8564L40.2765 44.9232C40.3568 45.2446 40.6783 45.4857 40.9998 45.4857C41.3213 45.4857 41.6426 45.2446 41.723 44.9232L45.098 34.8785C45.1783 34.7982 45.1783 34.7982 45.1783 34.7178C45.6605 33.191 45.8212 31.9856 45.8212 31.0214C45.8212 28.45 45.1783 27.1642 44.4551 25.6375L44.1337 24.9946C43.8123 24.4321 43.4908 23.7893 43.1694 23.2268C42.4462 22.0214 41.8033 20.816 41.8033 19.7714C41.8033 17.6821 43.4908 16.5571 45.0176 16.5571C49.1962 16.5571 49.5176 17.3607 50.0801 19.0482C50.4015 19.8518 50.5623 20.7357 50.5623 21.7V23.066Z" fill="#60E1CB"/>
</g>
<defs>
<clipPath id="clip0_407_237">
<rect width="45" height="45" fill="white" transform="translate(7.24976 11.334)"/>
</clipPath>
</defs>
</svg>
